<svg xmlns="http://www.w3.org/2000/svg" xmlns:xlink="http://www.w3.org/1999/xlink" class="lds-flask" width="200px" height="200px" viewBox="0 0 100 100" preserveAspectRatio="xMidYMid" style="background: none;"><defs>
<clipPath id="lds-flask-cpid-a550e56e9d41d" clipPathUnits="userSpaceOnUse">
<rect x="0" y="50" width="100" height="50"/>
</clipPath>
<pattern id="lds-flask-patid-2de19cd3a5522" patternUnits="userSpaceOnUse" x="0" y="0" width="100" height="100">
<rect x="0" y="0" width="100" height="100" fill="#fdc823"/><circle cx="62" cy="0" r="3" fill="#eca611" transform="translate(0 41.1363)">
<animateTransform attributeName="transform" type="translate" values="0 136;0 -36" keyTimes="0;1" dur="3s" begin="-1.29s" repeatCount="indefinite"/>
</circle><circle cx="74" cy="0" r="3" fill="#eca611" transform="translate(0 78.5547)">
<animateTransform attributeName="transform" type="translate" values="0 130;0 -30" keyTimes="0;1" dur="3s" begin="-0.6s" repeatCount="indefinite"/>
</circle><circle cx="43" cy="0" r="3" fill="#eca611" transform="translate(0 117.798)">
<animateTransform attributeName="transform" type="translate" values="0 142;0 -42" keyTimes="0;1" dur="3s" begin="-0.03s" repeatCount="indefinite"/>
</circle><circle cx="75" cy="0" r="3" fill="#eca611" transform="translate(0 79.0239)">
<animateTransform attributeName="transform" type="translate" values="0 127;0 -27" keyTimes="0;1" dur="3s" begin="-0.57s" repeatCount="indefinite"/>
</circle><circle cx="56" cy="0" r="2" fill="#eca611" transform="translate(0 3.26552)">
<animateTransform attributeName="transform" type="translate" values="0 133;0 -33" keyTimes="0;1" dur="3s" begin="-1.98s" repeatCount="indefinite"/>
</circle><circle cx="60" cy="0" r="3" fill="#eca611" transform="translate(0 95.9976)">
<animateTransform attributeName="transform" type="translate" values="0 116;0 -16" keyTimes="0;1" dur="3s" begin="-0.09s" repeatCount="indefinite"/>
</circle><circle cx="13" cy="0" r="2" fill="#eca611" transform="translate(0 -5.30368)">
<animateTransform attributeName="transform" type="translate" values="0 136;0 -36" keyTimes="0;1" dur="3s" begin="-2.1s" repeatCount="indefinite"/>
</circle><circle cx="41" cy="0" r="2" fill="#eca611" transform="translate(0 6.57925)">
<animateTransform attributeName="transform" type="translate" values="0 122;0 -22" keyTimes="0;1" dur="3s" begin="-2.04s" repeatCount="indefinite"/>
</circle><circle cx="85" cy="0" r="3" fill="#eca611" transform="translate(0 37.0622)">
<animateTransform attributeName="transform" type="translate" values="0 108;0 -8" keyTimes="0;1" dur="3s" begin="-1.47s" repeatCount="indefinite"/>
</circle><circle cx="93" cy="0" r="2" fill="#eca611" transform="translate(0 94.1303)">
<animateTransform attributeName="transform" type="translate" values="0 151;0 -51" keyTimes="0;1" dur="3s" begin="-0.48s" repeatCount="indefinite"/>
</circle><circle cx="15" cy="0" r="2" fill="#eca611" transform="translate(0 16.5778)">
<animateTransform attributeName="transform" type="translate" values="0 129;0 -29" keyTimes="0;1" dur="3s" begin="-1.77s" repeatCount="indefinite"/>
</circle><circle cx="53" cy="0" r="3" fill="#eca611" transform="translate(0 53.0744)">
<animateTransform attributeName="transform" type="translate" values="0 104;0 -4" keyTimes="0;1" dur="3s" begin="-1.05s" repeatCount="indefinite"/>
</circle><circle cx="84" cy="0" r="2" fill="#eca611" transform="translate(0 137.109)">
<animateTransform attributeName="transform" type="translate" values="0 145;0 -45" keyTimes="0;1" dur="3s" begin="-2.76s" repeatCount="indefinite"/>
</circle><circle cx="59" cy="0" r="3" fill="#eca611" transform="translate(0 0.727264)">
<animateTransform attributeName="transform" type="translate" values="0 152;0 -52" keyTimes="0;1" dur="3s" begin="-1.86s" repeatCount="indefinite"/>
</circle><circle cx="27" cy="0" r="2" fill="#eca611" transform="translate(0 22.0776)">
<animateTransform attributeName="transform" type="translate" values="0 116;0 -16" keyTimes="0;1" dur="3s" begin="-1.77s" repeatCount="indefinite"/>
</circle><circle cx="88" cy="0" r="3" fill="#eca611" transform="translate(0 71.3241)">
<animateTransform attributeName="transform" type="translate" values="0 140;0 -40" keyTimes="0;1" dur="3s" begin="-0.78s" repeatCount="indefinite"/>
</circle><circle cx="55" cy="0" r="2" fill="#eca611" transform="translate(0 -1.89287)">
<animateTransform attributeName="transform" type="translate" values="0 139;0 -39" keyTimes="0;1" dur="3s" begin="-2.01s" repeatCount="indefinite"/>
</circle><circle cx="11" cy="0" r="2" fill="#eca611" transform="translate(0 81.2701)">
<animateTransform attributeName="transform" type="translate" values="0 125;0 -25" keyTimes="0;1" dur="3s" begin="-0.51s" repeatCount="indefinite"/>
</circle><circle cx="9" cy="0" r="2" fill="#eca611" transform="translate(0 43.6039)">
<animateTransform attributeName="transform" type="translate" values="0 127;0 -27" keyTimes="0;1" dur="3s" begin="-1.26s" repeatCount="indefinite"/>
</circle><circle cx="13" cy="0" r="2" fill="#eca611" transform="translate(0 123.696)">
<animateTransform attributeName="transform" type="translate" values="0 136;0 -36" keyTimes="0;1" dur="3s" begin="-2.85s" repeatCount="indefinite"/>
</circle><circle cx="49" cy="0" r="2" fill="#eca611" transform="translate(0 54.9238)">
<animateTransform attributeName="transform" type="translate" values="0 114;0 -14" keyTimes="0;1" dur="3s" begin="-1.02s" repeatCount="indefinite"/>
</circle><circle cx="54" cy="0" r="2" fill="#eca611" transform="translate(0 30.6038)">
<animateTransform attributeName="transform" type="translate" values="0 114;0 -14" keyTimes="0;1" dur="3s" begin="-1.59s" repeatCount="indefinite"/>
</circle><circle cx="30" cy="0" r="3" fill="#eca611" transform="translate(0 104.37)">
<animateTransform attributeName="transform" type="translate" values="0 112;0 -12" keyTimes="0;1" dur="3s" begin="-2.82s" repeatCount="indefinite"/>
</circle><circle cx="13" cy="0" r="2" fill="#eca611" transform="translate(0 94.6715)">
<animateTransform attributeName="transform" type="translate" values="0 118;0 -18" keyTimes="0;1" dur="3s" begin="-0.15s" repeatCount="indefinite"/>
</circle><circle cx="82" cy="0" r="2" fill="#eca611" transform="translate(0 -42.4205)">
<animateTransform attributeName="transform" type="translate" values="0 148;0 -48" keyTimes="0;1" dur="3s" begin="-2.55s" repeatCount="indefinite"/>
</circle><circle cx="1" cy="0" r="3" fill="#eca611" transform="translate(0 8.18391)">
<animateTransform attributeName="transform" type="translate" values="0 127;0 -27" keyTimes="0;1" dur="3s" begin="-1.95s" repeatCount="indefinite"/>
</circle><circle cx="46" cy="0" r="3" fill="#eca611" transform="translate(0 20.9792)">
<animateTransform attributeName="transform" type="translate" values="0 122;0 -22" keyTimes="0;1" dur="3s" begin="-1.74s" repeatCount="indefinite"/>
</circle><circle cx="41" cy="0" r="3" fill="#eca611" transform="translate(0 54.616)">
<animateTransform attributeName="transform" type="translate" values="0 110;0 -10" keyTimes="0;1" dur="3s" begin="-1.02s" repeatCount="indefinite"/>
</circle><circle cx="10" cy="0" r="3" fill="#eca611" transform="translate(0 64.967)">
<animateTransform attributeName="transform" type="translate" values="0 126;0 -26" keyTimes="0;1" dur="3s" begin="-0.84s" repeatCount="indefinite"/>
</circle><circle cx="38" cy="0" r="3" fill="#eca611" transform="translate(0 58.1425)">
<animateTransform attributeName="transform" type="translate" values="0 134;0 -34" keyTimes="0;1" dur="3s" begin="-0.99s" repeatCount="indefinite"/>
</circle><circle cx="93" cy="0" r="2" fill="#eca611" transform="translate(0 -36.6943)">
<animateTransform attributeName="transform" type="translate" values="0 146;0 -46" keyTimes="0;1" dur="3s" begin="-2.49s" repeatCount="indefinite"/>
</circle><circle cx="32" cy="0" r="2" fill="#eca611" transform="translate(0 26.7393)">
<animateTransform attributeName="transform" type="translate" values="0 122;0 -22" keyTimes="0;1" dur="3s" begin="-1.62s" repeatCount="indefinite"/>
</circle><circle cx="99" cy="0" r="2" fill="#eca611" transform="translate(0 108.955)">
<animateTransform attributeName="transform" type="translate" values="0 130;0 -30" keyTimes="0;1" dur="3s" begin="-0.03s" repeatCount="indefinite"/>
</circle><circle cx="40" cy="0" r="3" fill="#eca611" transform="translate(0 104.58)">
<animateTransform attributeName="transform" type="translate" values="0 148;0 -48" keyTimes="0;1" dur="3s" begin="-0.3s" repeatCount="indefinite"/>
</circle><circle cx="61" cy="0" r="2" fill="#eca611" transform="translate(0 35.161)">
<animateTransform attributeName="transform" type="translate" values="0 141;0 -41" keyTimes="0;1" dur="3s" begin="-1.38s" repeatCount="indefinite"/>
</circle><circle cx="25" cy="0" r="2" fill="#eca611" transform="translate(0 -24.899)">
<animateTransform attributeName="transform" type="translate" values="0 141;0 -41" keyTimes="0;1" dur="3s" begin="-2.37s" repeatCount="indefinite"/>
</circle><circle cx="19" cy="0" r="2" fill="#eca611" transform="translate(0 -49.2897)">
<animateTransform attributeName="transform" type="translate" values="0 151;0 -51" keyTimes="0;1" dur="3s" begin="-2.61s" repeatCount="indefinite"/>
</circle><circle cx="35" cy="0" r="2" fill="#eca611" transform="translate(0 115.587)">
<animateTransform attributeName="transform" type="translate" values="0 139;0 -39" keyTimes="0;1" dur="3s" begin="-0.03s" repeatCount="indefinite"/>
</circle><circle cx="28" cy="0" r="3" fill="#eca611" transform="translate(0 3.21487)">
<animateTransform attributeName="transform" type="translate" values="0 143;0 -43" keyTimes="0;1" dur="3s" begin="-1.89s" repeatCount="indefinite"/>
</circle><circle cx="31" cy="0" r="2" fill="#eca611" transform="translate(0 60.2622)">
<animateTransform attributeName="transform" type="translate" values="0 108;0 -8" keyTimes="0;1" dur="3s" begin="-0.87s" repeatCount="indefinite"/>
</circle><circle cx="19" cy="0" r="2" fill="#eca611" transform="translate(0 34.9979)">
<animateTransform attributeName="transform" type="translate" values="0 142;0 -42" keyTimes="0;1" dur="3s" begin="-1.38s" repeatCount="indefinite"/>
</circle><circle cx="77" cy="0" r="2" fill="#eca611" transform="translate(0 89.761)">
<animateTransform attributeName="transform" type="translate" values="0 141;0 -41" keyTimes="0;1" dur="3s" begin="-0.48s" repeatCount="indefinite"/>
</circle><circle cx="3" cy="0" r="2" fill="#eca611" transform="translate(0 92.2991)">
<animateTransform attributeName="transform" type="translate" values="0 109;0 -9" keyTimes="0;1" dur="3s" begin="-0.06s" repeatCount="indefinite"/>
</circle><circle cx="57" cy="0" r="2" fill="#eca611" transform="translate(0 27.1268)">
<animateTransform attributeName="transform" type="translate" values="0 113;0 -13" keyTimes="0;1" dur="3s" begin="-1.68s" repeatCount="indefinite"/>
</circle><circle cx="96" cy="0" r="2" fill="#eca611" transform="translate(0 37.5703)">
<animateTransform attributeName="transform" type="translate" values="0 151;0 -51" keyTimes="0;1" dur="3s" begin="-1.32s" repeatCount="indefinite"/>
</circle><circle cx="55" cy="0" r="3" fill="#eca611" transform="translate(0 -6.09929)">
<animateTransform attributeName="transform" type="translate" values="0 115;0 -15" keyTimes="0;1" dur="3s" begin="-2.43s" repeatCount="indefinite"/>
</circle><circle cx="12" cy="0" r="2" fill="#eca611" transform="translate(0 52.807)">
<animateTransform attributeName="transform" type="translate" values="0 126;0 -26" keyTimes="0;1" dur="3s" begin="-1.08s" repeatCount="indefinite"/>
</circle><circle cx="57" cy="0" r="2" fill="#eca611" transform="translate(0 124.912)">
<animateTransform attributeName="transform" type="translate" values="0 144;0 -44" keyTimes="0;1" dur="3s" begin="-2.94s" repeatCount="indefinite"/>
</circle><circle cx="3" cy="0" r="3" fill="#eca611" transform="translate(0 44.8917)">
<animateTransform attributeName="transform" type="translate" values="0 131;0 -31" keyTimes="0;1" dur="3s" begin="-1.23s" repeatCount="indefinite"/>
</circle><circle cx="100" cy="0" r="3" fill="#eca611" transform="translate(0 41.6517)">
<animateTransform attributeName="transform" type="translate" values="0 131;0 -31" keyTimes="0;1" dur="3s" begin="-1.29s" repeatCount="indefinite"/>
</circle>      </pattern></defs>

      <path fill="url(#lds-flask-patid-2de19cd3a5522)" clip-path="url(#lds-flask-cpid-a550e56e9d41d)" d="M59,37.3V18.9c3-0.8,5.1-3.6,5.1-6.8C64.1,8.2,61,5,57.1,5H42.9c-3.9,0-7.1,3.2-7.1,7.1c0,3.2,2.2,6,5.1,6.8v18.4c-11.9,3.8-20.6,15-20.6,28.2C20.4,81.8,33.7,95,50,95s29.6-13.2,29.6-29.6C79.6,52.2,70.9,41.1,59,37.3z"/>

      <path fill="none" stroke="#fff36a" stroke-width="5" d="M59,37.3V18.9c3-0.8,5.1-3.6,5.1-6.8C64.1,8.2,61,5,57.1,5H42.9c-3.9,0-7.1,3.2-7.1,7.1c0,3.2,2.2,6,5.1,6.8v18.4c-11.9,3.8-20.6,15-20.6,28.2C20.4,81.8,33.7,95,50,95s29.6-13.2,29.6-29.6C79.6,52.2,70.9,41.1,59,37.3z"/>
</svg>